<svg class="w-6 h-6" width="24" height="24" viewBox="0 0 24 24" fill="none" xmlns="http://www.w3.org/2000/svg"><path d="M8.9162 0.992079C9.44938 0.980966 9.98009 1.07661 10.4758 1.27333C10.9714 1.47005 11.4225 1.76394 11.8029 2.13759C12.1833 2.51123 12.4851 2.95713 12.6906 3.44911C12.8958 3.94027 13.0014 4.46762 13.0002 4.99989V18.0009C12.9995 18.6843 12.8583 19.3603 12.5861 19.9872C12.3139 20.614 11.916 21.1783 11.4172 21.6454C10.9183 22.1124 10.3291 22.4726 9.68573 22.703C9.0423 22.9334 8.35797 23.0295 7.67597 22.9852C6.99406 22.941 6.3281 22.7577 5.71991 22.4462C5.11177 22.1346 4.57414 21.7012 4.13983 21.1737C3.70547 20.6461 3.38346 20.0346 3.19452 19.3778C3.06539 18.9289 3.00156 18.465 3.00116 17.9999C2.52503 17.6431 2.11443 17.2037 1.7912 16.7001C1.35122 16.0145 1.0853 15.2316 1.01679 14.4198C0.948327 13.6082 1.07984 12.7924 1.39862 12.0429C1.61534 11.5334 1.9155 11.0661 2.28339 10.6571C2.11909 10.1899 2.02335 9.69981 2.00312 9.20204C1.97233 8.44406 2.11492 7.68897 2.41913 6.99403C2.72337 6.29908 3.18116 5.68189 3.75897 5.19032C4.14557 4.86144 4.57965 4.59571 5.04413 4.39833C5.08463 4.12808 5.15303 3.86198 5.24823 3.60438C5.43309 3.10425 5.71579 2.64592 6.08026 2.25673C6.44482 1.86749 6.88422 1.55499 7.37128 1.33778C7.85808 1.12075 8.38333 1.00325 8.9162 0.992079ZM8.95819 2.9911C8.69168 2.99668 8.42919 3.05637 8.18573 3.16493C7.9422 3.27353 7.7225 3.4293 7.54022 3.62392C7.35798 3.81851 7.21664 4.04767 7.12421 4.29774C7.03181 4.54775 6.9903 4.81371 7.00214 5.07997C7.02324 5.55254 6.71027 5.97582 6.25214 6.09364C5.81129 6.20699 5.40158 6.41881 5.05487 6.71376C4.70826 7.00866 4.43369 7.3789 4.25116 7.79579C4.06862 8.21277 3.98269 8.66617 4.00116 9.12099C4.01967 9.57566 4.14192 10.0201 4.35761 10.4208C4.58512 10.8434 4.48006 11.3681 4.10761 11.6708C3.72828 11.979 3.42978 12.3754 3.23847 12.8251C3.04715 13.2749 2.96885 13.7648 3.00995 14.2518C3.05106 14.7389 3.21081 15.2087 3.4748 15.62C3.73877 16.0312 4.09904 16.372 4.5246 16.6122C4.87912 16.8123 5.07679 17.2075 5.0246 17.6112C4.97206 18.0179 5.00402 18.431 5.11737 18.8251C5.23073 19.2191 5.42324 19.5857 5.68378 19.9022C5.94439 20.2188 6.26708 20.4789 6.63202 20.6659C6.99698 20.8529 7.39665 20.9626 7.80585 20.9891C8.21489 21.0157 8.62501 20.9583 9.01093 20.8202C9.39696 20.682 9.75066 20.4657 10.05 20.1854C10.3493 19.9052 10.5888 19.5664 10.7521 19.1903C10.9152 18.8146 10.9996 18.4094 11.0002 17.9999V4.99696L10.9904 4.79774C10.9712 4.59961 10.9229 4.40498 10.8459 4.2206C10.7431 3.97457 10.5918 3.75119 10.4016 3.56435C10.2113 3.37749 9.98533 3.23009 9.73749 3.13173C9.48976 3.03348 9.22464 2.98555 8.95819 2.9911Z" fill="#686583" style="fill-opacity:1;"/><path d="M12.0547 8.002C12.6061 8.03221 13.0282 8.50336 12.9981 9.05473C12.9388 10.1408 12.5589 11.1846 11.9063 12.0547C11.2537 12.9249 10.3581 13.5824 9.33209 13.9434C8.81115 14.1267 8.24003 13.853 8.0567 13.3321C7.87344 12.8111 8.14714 12.24 8.66802 12.0567C9.32089 11.827 9.89139 11.4091 10.3067 10.8555C10.722 10.3017 10.9643 9.63655 11.002 8.94536C11.0322 8.39402 11.5034 7.97194 12.0547 8.002Z" fill="#686583" style="fill-opacity:1;"/><path d="M5.96204 4.12597C6.47946 4.10482 6.92164 4.48054 6.99329 4.98242L7.00208 5.08398L7.02649 5.32421C7.05232 5.48269 7.09743 5.63739 7.16028 5.78515L7.2677 6.00097L7.31458 6.09179C7.52186 6.55418 7.3489 7.10767 6.90051 7.36621C6.45179 7.62471 5.88601 7.49649 5.58997 7.08496L5.5343 6.99902L5.42004 6.78613C5.20494 6.35435 5.06944 5.88714 5.02063 5.40722L5.00403 5.16601L5.005 5.06347C5.03558 4.55761 5.44479 4.14721 5.96204 4.12597Z" fill="#686583" style="fill-opacity:1;"/><path d="M3.57661 9.62598C4.05944 9.35803 4.66792 9.53193 4.93599 10.0147C5.20395 10.4975 5.03007 11.106 4.54732 11.374C4.39276 11.4598 4.24592 11.5593 4.10884 11.6709L4.02583 11.7324C3.60254 12.0109 3.0285 11.9287 2.70161 11.5273C2.35305 11.0993 2.41736 10.4699 2.84517 10.1211L3.01997 9.98438C3.19721 9.85263 3.38338 9.73323 3.57661 9.62598Z" fill="#686583" style="fill-opacity:1;"/><path d="M3.16187 16.9928C3.41618 16.5419 3.96808 16.3641 4.43238 16.567L4.52418 16.6129L4.69605 16.7028C5.10189 16.8983 5.54763 16.9999 5.99976 16.9996C6.55193 16.9995 6.99951 17.4474 6.99976 17.9996C6.99997 18.5518 6.55285 18.9992 6.00074 18.9996C5.24714 19 4.50432 18.8304 3.82789 18.5045L3.54176 18.3551L3.45484 18.3004C3.04094 18.0081 2.90761 17.4437 3.16187 16.9928Z" fill="#686583" style="fill-opacity:1;"/><path d="M16 12C16.5523 12 17 12.4477 17 13C17 13.5523 16.5523 14 16 14H12C11.4477 14 11 13.5523 11 13C11 12.4477 11.4477 12 12 12H16Z" fill="#686583" style="fill-opacity:1;"/><path d="M19 21V20C19 19.7348 18.8946 19.4805 18.707 19.293C18.5195 19.1054 18.2652 19 18 19H12C11.4477 19 11 18.5523 11 18C11 17.4477 11.4477 17 12 17H18C18.7957 17 19.5585 17.3163 20.1211 17.8789C20.6837 18.4415 21 19.2043 21 20V21C21 21.5523 20.5523 22 20 22C19.4477 22 19 21.5523 19 21Z" fill="#686583" style="fill-opacity:1;"/><path d="M20 7C20.5523 7 21 7.44772 21 8C21 8.55228 20.5523 9 20 9H12C11.4477 9 11 8.55228 11 8C11 7.44772 11.4477 7 12 7H20Z" fill="#686583" style="fill-opacity:1;"/><path d="M15 8V5C15 4.20435 15.3163 3.44152 15.8789 2.87891C16.4415 2.3163 17.2044 2 18 2C18.5523 2 19 2.44772 19 3C19 3.55228 18.5523 4 18 4C17.7348 4 17.4805 4.10543 17.293 4.29297C17.1054 4.48051 17 4.73478 17 5V8C17 8.55228 16.5523 9 16 9C15.4477 9 15 8.55228 15 8Z" fill="#686583" style="fill-opacity:1;"/><path d="M16 12.5C15.7239 12.5 15.5 12.7239 15.5 13C15.5 13.2761 15.7239 13.5 16 13.5C16.2761 13.5 16.5 13.2761 16.5 13C16.5 12.7239 16.2761 12.5 16 12.5ZM17.5 13C17.5 13.8284 16.8284 14.5 16 14.5C15.1716 14.5 14.5 13.8284 14.5 13C14.5 12.1716 15.1716 11.5 16 11.5C16.8284 11.5 17.5 12.1716 17.5 13Z" fill="#686583" style="fill-opacity:1;"/><path d="M18 2.5C17.7239 2.5 17.5 2.72386 17.5 3C17.5 3.27614 17.7239 3.5 18 3.5C18.2761 3.5 18.5 3.27614 18.5 3C18.5 2.72386 18.2761 2.5 18 2.5ZM19.5 3C19.5 3.82843 18.8284 4.5 18 4.5C17.1716 4.5 16.5 3.82843 16.5 3C16.5 2.17157 17.1716 1.5 18 1.5C18.8284 1.5 19.5 2.17157 19.5 3Z" fill="#686583" style="fill-opacity:1;"/><path d="M20 20.5C19.7239 20.5 19.5 20.7239 19.5 21C19.5 21.2761 19.7239 21.5 20 21.5C20.2761 21.5 20.5 21.2761 20.5 21C20.5 20.7239 20.2761 20.5 20 20.5ZM21.5 21C21.5 21.8284 20.8284 22.5 20 22.5C19.1716 22.5 18.5 21.8284 18.5 21C18.5 20.1716 19.1716 19.5 20 19.5C20.8284 19.5 21.5 20.1716 21.5 21Z" fill="#686583" style="fill-opacity:1;"/><path d="M20 7.5C19.7239 7.5 19.5 7.72386 19.5 8C19.5 8.27614 19.7239 8.5 20 8.5C20.2761 8.5 20.5 8.27614 20.5 8C20.5 7.72386 20.2761 7.5 20 7.5ZM21.5 8C21.5 8.82843 20.8284 9.5 20 9.5C19.1716 9.5 18.5 8.82843 18.5 8C18.5 7.17157 19.1716 6.5 20 6.5C20.8284 6.5 21.5 7.17157 21.5 8Z" fill="#686583" style="fill-opacity:1;"/></svg>